<svg width="22" height="22" viewBox="0 0 22 22" fill="none" xmlns="http://www.w3.org/2000/svg">
<path d="M0.75 10.75C0.75 5.23 5.23 0.75 10.75 0.75C16.27 0.75 20.75 5.23 20.75 10.75C20.75 16.27 16.27 20.75 10.75 20.75C5.23 20.75 0.75 16.27 0.75 10.75Z" fill="white" stroke="white" stroke-width="1.5" stroke-linecap="round" stroke-linejoin="round"/>
<path d="M7.37988 14.06C9.55988 13.48 11.8699 13.72 13.8799 14.75" stroke="black" stroke-width="1.5" stroke-linecap="round" stroke-linejoin="round"/>
<path d="M6.25 10.82C7.35 10.45 8.53 10.25 9.75 10.25C11.77 10.25 13.67 10.8 15.3 11.75" stroke="black" stroke-width="1.5" stroke-linecap="round" stroke-linejoin="round"/>
<path d="M5.75 7.66C7.13 7.07 8.65 6.75 10.25 6.75C12.66 6.75 14.9 7.49 16.75 8.75" stroke="black" stroke-width="1.5" stroke-linecap="round" stroke-linejoin="round"/>
</svg>
